<svg version="1.2" baseProfile="tiny-ps" xmlns="http://www.w3.org/2000/svg" viewBox="0 0 504 113" width="140" height="31"><title>New Project</title><style>tspan { white-space:pre }.shp0 { fill: #0583f2 } </style><path fill-rule="evenodd" class="shp0" d="M0.07 111L0.07 9L35.65 9C49.51 9 59.79 11.07 66.49 15.21C73.23 19.3 76.6 25.7 76.6 34.4C76.6 40.12 75.14 45 72.21 49.05C69.28 53.09 65.42 55.7 60.63 56.86L60.63 57.56C66.95 59.23 71.53 62.02 74.37 65.93C77.21 69.84 78.63 74.91 78.63 81.14C78.63 90.4 75.14 97.7 68.16 103.05C61.23 108.35 51.77 111 39.77 111L0.07 111ZM27.63 29.86L27.63 48.14L35.93 48.14C39.88 48.14 42.93 47.33 45.07 45.7C47.26 44.07 48.35 41.65 48.35 38.44C48.35 32.72 44.02 29.86 35.37 29.86L27.63 29.86ZM36.77 68.3L27.63 68.3L27.63 89.72L37.33 89.72C45.93 89.72 50.23 86.09 50.23 78.84C50.23 75.44 49.07 72.84 46.74 71.02C44.47 69.21 41.14 68.3 36.77 68.3ZM122.16 31.95L122.16 111L94.88 111L94.88 31.95L122.16 31.95ZM94.19 12.28C94.19 8.19 95.33 5.14 97.6 3.14C99.88 1.14 103.56 0.14 108.63 0.14C113.7 0.14 117.4 1.16 119.72 3.21C122.05 5.26 123.21 8.28 123.21 12.28C123.21 20.28 118.35 24.28 108.63 24.28C99 24.28 94.19 20.28 94.19 12.28ZM179.93 90.84C183.6 90.84 188 89.93 193.12 88.12L193.12 108C189.44 109.58 185.93 110.72 182.58 111.42C179.28 112.07 175.4 112.4 170.93 112.4C161.77 112.4 155.16 110.16 151.12 105.7C147.07 101.19 145.05 94.28 145.05 84.98L145.05 52.4L135.49 52.4L135.49 41.3L147.63 32.72L154.67 16.12L172.53 16.12L172.53 31.95L191.93 31.95L191.93 52.4L172.53 52.4L172.53 83.16C172.53 88.28 175 90.84 179.93 90.84ZM251.65 60.98L265.81 9L296.65 9L263.23 111L230.79 111L197.51 9L228.49 9L242.37 60.7C245.26 72.19 246.84 80.19 247.12 84.7C247.44 81.44 248.09 77.37 249.07 72.49C250.05 67.6 250.91 63.77 251.65 60.98ZM333.49 31.95L333.49 111L306.21 111L306.21 31.95L333.49 31.95ZM305.51 12.28C305.51 8.19 306.65 5.14 308.93 3.14C311.21 1.14 314.88 0.14 319.95 0.14C325.02 0.14 328.72 1.16 331.05 3.21C333.37 5.26 334.53 8.28 334.53 12.28C334.53 20.28 329.67 24.28 319.95 24.28C310.33 24.28 305.51 20.28 305.51 12.28ZM400.81 30.56C409.42 30.56 416.23 34.16 421.26 41.37C426.33 48.58 428.86 58.56 428.86 71.3C428.86 84.14 426.3 94.21 421.19 101.51C416.12 108.77 409.05 112.4 399.98 112.4C397.05 112.4 394.44 112.09 392.16 111.49C389.88 110.84 387.84 109.95 386.02 108.84C384.26 107.72 382.19 105.86 379.81 103.26L378.14 103.26L373.81 111L352.53 111L352.53 2.44L379.81 2.44L379.81 27C379.81 29.93 379.49 34.98 378.84 42.14L379.81 42.14C382.47 38.05 385.51 35.09 388.95 33.28C392.44 31.47 396.4 30.56 400.81 30.56ZM390.84 51.98C387.02 51.98 384.23 53.3 382.47 55.95C380.7 58.6 379.81 62.77 379.81 68.44L379.81 72.28C379.81 78.74 380.7 83.4 382.47 86.23C384.23 89.02 387.12 90.42 391.12 90.42C394.33 90.42 396.79 88.79 398.51 85.53C400.23 82.23 401.09 77.4 401.09 71.02C401.09 58.33 397.67 51.98 390.84 51.98ZM503.86 90.14L503.86 111L438.42 111L438.42 95.44L471.14 52.81L440.3 52.81L440.3 31.95L502.33 31.95L502.33 48.84L471 90.14L503.86 90.14Z" /></svg>